<svg width="25" height="25" viewBox="0 0 25 25" fill="none" xmlns="http://www.w3.org/2000/svg">
<g id="&#240;&#159;&#166;&#134; icon &#34;search normal 1 icon&#34;">
<g id="Group">
<path id="Vector" d="M11.9198 23.8395C5.34936 23.8395 0 18.4902 0 11.9198C0 5.34936 5.34936 0 11.9198 0C18.4902 0 23.8395 5.34936 23.8395 11.9198C23.8395 18.4902 18.4902 23.8395 11.9198 23.8395ZM11.9198 1.74436C6.30294 1.74436 1.74436 6.31457 1.74436 11.9198C1.74436 17.525 6.30294 22.0952 11.9198 22.0952C17.5366 22.0952 22.0952 17.525 22.0952 11.9198C22.0952 6.31457 17.5366 1.74436 11.9198 1.74436Z" fill="#190356"/>
<path id="Vector_2" d="M24.1307 25.0023C23.9098 25.0023 23.6888 24.9209 23.5144 24.7465L21.1886 22.4207C20.8514 22.0834 20.8514 21.5252 21.1886 21.188C21.5258 20.8508 22.084 20.8508 22.4213 21.188L24.7471 23.5138C25.0843 23.8511 25.0843 24.4093 24.7471 24.7465C24.5727 24.9209 24.3517 25.0023 24.1307 25.0023Z" fill="#190356"/>
</g>
</g>
</svg>
